<svg width="1000" height="918" viewBox="0 0 1000 918" fill="none" xmlns="http://www.w3.org/2000/svg">
<path d="M232.099 755.4H118.739V788.972H157.979V908H192.859V788.972H232.099V755.4ZM305.585 799V809.246C298.391 800.962 287.709 795.948 273.103 795.948C244.545 795.948 221.001 821.018 221.001 853.5C221.001 885.982 244.545 911.052 273.103 911.052C287.709 911.052 298.391 906.038 305.585 897.754V908H338.285V799H305.585ZM279.643 880.096C264.601 880.096 253.701 869.85 253.701 853.5C253.701 837.15 264.601 826.904 279.643 826.904C294.685 826.904 305.585 837.15 305.585 853.5C305.585 869.85 294.685 880.096 279.643 880.096ZM394.736 818.402V799H362.036V908H394.736V858.732C394.736 837.15 413.92 831.7 427.436 833.88V796.82C413.702 796.82 399.096 803.796 394.736 818.402ZM518.422 799V809.246C511.228 800.962 500.546 795.948 485.94 795.948C457.382 795.948 433.838 821.018 433.838 853.5C433.838 885.982 457.382 911.052 485.94 911.052C500.546 911.052 511.228 906.038 518.422 897.754V908H551.122V799H518.422ZM492.48 880.096C477.438 880.096 466.538 869.85 466.538 853.5C466.538 837.15 477.438 826.904 492.48 826.904C507.522 826.904 518.422 837.15 518.422 853.5C518.422 869.85 507.522 880.096 492.48 880.096ZM640.054 795.948C625.448 795.948 614.766 800.962 607.572 809.246V755.4H574.872V908H607.572V897.754C614.766 906.038 625.448 911.052 640.054 911.052C668.612 911.052 692.156 885.982 692.156 853.5C692.156 821.018 668.612 795.948 640.054 795.948ZM633.514 880.096C618.472 880.096 607.572 869.85 607.572 853.5C607.572 837.15 618.472 826.904 633.514 826.904C648.556 826.904 659.456 837.15 659.456 853.5C659.456 869.85 648.556 880.096 633.514 880.096ZM762.776 911.052C794.822 911.052 820.546 885.982 820.546 853.5C820.546 821.018 794.822 795.948 762.776 795.948C730.73 795.948 705.006 821.018 705.006 853.5C705.006 885.982 730.73 911.052 762.776 911.052ZM762.776 879.224C748.606 879.224 737.706 868.978 737.706 853.5C737.706 838.022 748.606 827.776 762.776 827.776C776.946 827.776 787.846 838.022 787.846 853.5C787.846 868.978 776.946 879.224 762.776 879.224ZM838.802 908H871.502V748.86H838.802V908Z" fill="#162659"/>
<path d="M865.995 510.24C859.661 506.029 852.468 503.284 844.94 502.204C830.551 519.348 808.771 530.635 786.165 534.116C752.471 539.314 720.658 524.546 705.312 488.855C676.569 421.748 686.634 377.757 676.222 306.145C672.262 278.936 664.672 256.528 654.771 238.064C642.038 213.06 623.734 191.313 601.27 174.498C578.806 157.684 552.782 146.252 525.203 141.082C497.624 135.911 469.225 137.142 442.197 144.678C415.168 152.214 390.23 165.855 369.305 184.55C348.38 203.244 332.025 226.493 321.502 252.504C310.979 278.516 306.569 306.597 308.61 334.582C310.651 362.567 319.09 389.711 333.276 413.92C347.462 438.13 367.017 458.759 390.433 474.219C353.139 458.407 322.122 430.701 302.218 395.42C282.314 360.139 274.639 319.265 280.391 279.167C199.902 328.883 124.362 432.753 203.037 647.524C203.037 647.524 214.967 655.774 249.238 656.797C281.794 657.755 297.09 650.973 297.09 650.973C297.09 650.973 285.341 586.373 292.734 555.352C292.734 555.352 335.388 584.36 393.09 584.36C418.099 584.402 442.794 578.789 465.329 567.942C465.329 567.942 460.247 631.255 471.368 666.005C471.368 666.005 494.023 677.077 530.176 677.357C563.276 677.605 575.288 669.816 575.288 669.816C575.288 669.816 551.792 570.813 590.139 490.274C633.75 569.477 716.566 606.339 791.247 587.512C842.828 574.509 868.222 544.61 882 526.691C878.058 520.006 872.569 514.364 865.995 510.24ZM591.542 362.395C587.214 363.319 582.71 362.938 578.599 361.302C574.488 359.666 570.955 356.848 568.445 353.204C565.935 349.56 564.563 345.253 564.5 340.829C564.438 336.405 565.688 332.061 568.094 328.348C570.5 324.634 573.952 321.717 578.016 319.966C582.079 318.215 586.57 317.707 590.922 318.508C595.273 319.309 599.29 321.382 602.463 324.465C605.637 327.548 607.825 331.503 608.752 335.829C609.367 338.704 609.41 341.671 608.878 344.562C608.346 347.453 607.249 350.211 605.651 352.678C604.053 355.145 601.984 357.273 599.563 358.941C597.142 360.608 594.416 361.782 591.542 362.395ZM592.499 527.4C600.98 593.782 631.044 638.515 631.044 638.515C631.044 638.515 614.329 647.227 586.624 646.765C583.787 626.358 582.782 605.738 583.621 585.152C584.38 565.627 587.358 546.252 592.499 527.4ZM305.489 579.542C305.577 595.716 306.734 611.867 308.954 627.889C333.968 628.367 350.75 623.499 350.75 623.499C347.229 613.472 344.39 603.218 342.252 592.809C329.629 589.482 317.327 585.043 305.489 579.542Z" fill="#04009A"/>
<path fill-rule="evenodd" clip-rule="evenodd" d="M658.308 20.0947L458.802 0.0346265C457.504 -0.0999495 456.195 0.160021 455.045 0.780826C453.896 1.40163 452.958 2.35463 452.355 3.51625C451.752 4.67786 451.511 5.9945 451.662 7.29543C451.814 8.59636 452.352 9.82156 453.206 10.8122L503.606 70.2798C503.954 70.6972 504.173 71.2079 504.234 71.7486C504.296 72.2894 504.198 72.8363 503.953 73.3218L488.221 104.333C482.91 113.913 478.58 120.669 490.31 118.024C533.181 108.355 631.166 138.493 669.779 218.451C674.958 236.477 678.79 226.077 678.79 226.077C688.895 208.392 695.656 195.392 704.1 179.185C704.35 178.7 704.74 178.301 705.219 178.041C705.698 177.781 706.243 177.67 706.785 177.725L736.014 180.454C736.014 193.109 729.898 207.137 731.492 224.503C731.544 224.964 731.475 225.431 731.293 225.858C731.111 226.284 730.821 226.656 730.452 226.936C727.716 228.871 725.85 231.809 725.256 235.114C724.663 238.42 725.39 241.826 727.282 244.598C727.514 244.943 727.663 245.338 727.717 245.752C727.771 246.165 727.729 246.585 727.593 246.979L714.772 281.745C714.632 282.126 714.576 282.533 714.611 282.938C714.646 283.342 714.77 283.734 714.974 284.085C715.177 284.436 715.456 284.737 715.79 284.966C716.124 285.196 716.504 285.349 716.903 285.413L746.167 290.089C746.577 290.154 746.998 290.124 747.395 290.002C747.793 289.88 748.158 289.668 748.462 289.383C748.766 289.098 749.001 288.748 749.15 288.358C749.298 287.968 749.357 287.55 749.32 287.134L746.167 250.438C746.135 249.922 746.243 249.406 746.482 248.946C746.72 248.487 747.078 248.101 747.518 247.831C753.842 243.763 754.622 230.448 745.681 225.233C745.322 225.007 745.02 224.702 744.797 224.34C744.575 223.978 744.439 223.57 744.399 223.147C742.667 207.154 746.756 193.822 747.466 181.879H748.176L793.466 186.295C794.01 186.35 794.559 186.241 795.041 185.981C795.523 185.721 795.916 185.322 796.169 184.835C796.423 184.349 796.525 183.797 796.464 183.252C796.402 182.706 796.178 182.192 795.822 181.775L660.127 21.0508C659.665 20.5102 659.014 20.168 658.308 20.0947Z" fill="#04009A"/>
</svg>
